HIERARCHY
ROOT Hips
{
  OFFSET 1.44925e-005 102.336 -0.101585
  CHANNELS 6 Xposition Yposition Zposition Zrotation Xrotation Yrotation
  JOINT LeftUpLeg
  {
    OFFSET 8.9458 -8.66707 0.101652
    CHANNELS 3 Zrotation Xrotation Yrotation
    JOINT LeftLeg
    {
      OFFSET 0 -44.4227 1.3727
      CHANNELS 3 Zrotation Xrotation Yrotation
      JOINT LeftFoot
      {
        OFFSET -0.253549 -42.0924 -1.46059
        CHANNELS 3 Zrotation Xrotation Yrotation
        JOINT LeftToes
        {
          OFFSET -0.04 -4.41509 8.4991
          CHANNELS 3 Zrotation Xrotation Yrotation
          End Site
          {
            OFFSET 0.08 -0.047448 9.77979
          }
        }
      }
    }
  }
  JOINT Spine
  {
    OFFSET 0 11.8905 0
    CHANNELS 3 Zrotation Xrotation Yrotation
    JOINT Spine1
    {
      OFFSET 0 25.6574 0.127663
      CHANNELS 3 Zrotation Xrotation Yrotation
      JOINT RightShoulder
      {
        OFFSET -8.99 -0.362252 -0.22
        CHANNELS 3 Zrotation Xrotation Yrotation
        JOINT RightArm
        {
          OFFSET -10.2827 -0.00338 0.322123
          CHANNELS 3 Zrotation Xrotation Yrotation
          JOINT RightForeArm
          {
            OFFSET -26.364 0.099144 -1.42434
            CHANNELS 3 Zrotation Xrotation Yrotation
            JOINT RightHand
            {
              OFFSET -22.0324 0.085362 1.02216
              CHANNELS 3 Zrotation Xrotation Yrotation
              End Site
              {
                OFFSET -13.3284 -0.6 1.50291
              }
            }
          }
        }
      }
      JOINT LeftShoulder1
      {
        OFFSET 8.99 -0.362252 -0.22
        CHANNELS 3 Zrotation Xrotation Yrotation
        JOINT LeftArm
        {
          OFFSET 10.2827 -0.00337999 0.322123
          CHANNELS 3 Zrotation Xrotation Yrotation
          JOINT LeftForeArm
          {
            OFFSET 26.2597 0.099144 -1.42434
            CHANNELS 3 Zrotation Xrotation Yrotation
            JOINT LeftHand
            {
              OFFSET 22.0902 0.085362 1.02216
              CHANNELS 3 Zrotation Xrotation Yrotation
              End Site
              {
                OFFSET 13.419 -0.6 1.50291
              }
            }
          }
        }
      }
      JOINT Head
      {
        OFFSET 0 8.73416 0.011341
        CHANNELS 3 Zrotation Xrotation Yrotation
        End Site
        {
          OFFSET -0.29 12.7742 2.51395
        }
      }
    }
  }
  JOINT RightUpLeg
  {
    OFFSET -8.9458 -8.66707 0.101652
    CHANNELS 3 Zrotation Xrotation Yrotation
    JOINT RightLeg
    {
      OFFSET 0 -44.4227 1.3727
      CHANNELS 3 Zrotation Xrotation Yrotation
      JOINT RightFoot
      {
        OFFSET 0.253549 -42.0924 -1.46059
        CHANNELS 3 Zrotation Xrotation Yrotation
        JOINT RightToes
        {
          OFFSET 0.04 -4.41509 8.4991
          CHANNELS 3 Zrotation Xrotation Yrotation
          End Site
          {
            OFFSET -0.08 -0.137448 9.77979
          }
        }
      }
    }
  }
}
MOTION
Frames:	14
Frame Time:	0.0333333
114.518 96.7546 7.2091 -7.87408 -1.63569 -93.5866 -7.5306 18.6759 6.23405 0.361871 20.8618 17.8762 -7.41801 -28.6583 -1.26053 -1.33828e-009 8.75237e-006 -1.46798e-008 -2.57756 15.4795 -0.959258 2.05153 -0.947599 -1.57783 37.8561 1.78041 0.0413241 37.3162 -21.9721 -0.42268 8.18434 39.5256 7.24202 -9.50359 9.46428 0.3384 -43.0046 3.38236 -3.32432 -25.9374 -13.8783 -2.85975 5.52303 31.2642 -36.1566 5.82328 9.61819 -0.917488 1.68332 -14.5763 -4.15587 -1.49968 -23.0039 -1.34756 0.96279 14.1282 -16.31 12.5355 -15.8119 0.688745 0.0462048 0.000530889 0.662642 
110.205 96.163 6.65842 -7.596 -0.806775 -92.2337 -5.77185 20.151 6.26287 0.856061 23.2886 15.9492 -9.97594 -28.2264 -1.7162 -1.33828e-009 8.75237e-006 -1.46798e-008 -1.08347 14.1891 -1.43562 2.38325 -0.386704 -1.89877 38.0626 1.78096 0.0161386 36.8824 -22.5949 -0.795709 8.2073 39.6398 7.06384 -9.30405 9.48371 0.206001 -43.2542 3.40328 -3.32904 -26.2431 -11.085 -2.0452 3.82178 30.0721 -32.4832 5.82328 9.61819 -0.917488 1.44257 -14.376 -4.50409 -0.0824455 -22.7622 -1.0413 0.528535 16.8508 -17.3971 8.78339 -12.6199 0.197747 0.0462048 0.000530889 0.662642 
105.747 95.6861 6.13119 -7.41443 0.485627 -91.6672 -2.82709 20.8446 6.7902 0.861752 27.4668 13.428 -14.1174 -26.6773 -2.29224 -1.33828e-009 8.75237e-006 -1.46798e-008 1.92275 12.9939 -1.78458 1.80953 -0.194767 -1.72692 38.2203 1.78112 0.00100254 36.4442 -23.752 -1.10624 8.5233 40.1471 6.24716 -9.22643 9.49629 0.0821314 -43.7379 3.4571 -3.36424 -26.5502 -7.34023 -0.744299 1.78709 28.0388 -27.8957 5.82328 9.61819 -0.917488 1.12897 -13.8825 -4.69134 2.20427 -23.4363 -1.28789 0.0364775 21.8071 -17.3382 4.4615 -7.38032 -0.182096 0.0462048 0.000530889 0.662642 
101.363 95.3059 5.62385 -7.47416 2.24508 -92.0078 0.470194 19.8673 7.77572 0.809989 34.8444 10.4972 -17.4874 -22.0315 -2.15426 -1.33828e-009 8.75237e-006 -1.46798e-008 5.09267 12.5593 -1.81315 0.884655 -0.724235 -1.16399 38.1408 1.78083 0.0133187 36.4082 -25.0849 -0.579126 9.2423 41.8209 4.42248 -9.28832 9.49444 0.0668284 -44.1691 3.5097 -3.40391 -27.3896 -4.81226 1.20578 0.0532904 26.5835 -23.4134 5.82328 9.61819 -0.917488 0.952469 -13.0507 -4.47667 4.65552 -24.0659 -1.90239 -0.768881 27.3694 -15.3146 1.54745 -4.23312 -0.204732 0.0462048 0.000530889 0.662642 
97.3351 95.0158 5.06481 -7.72618 3.41785 -92.2868 3.35882 16.3386 6.91706 0.927323 45.6006 9.21016 -17.1829 -13.0535 -0.792237 -1.33828e-009 8.75237e-006 -1.46798e-008 7.09851 12.8885 -1.88468 0.587587 -1.54192 -0.804763 38.0715 1.77999 0.0257535 36.8173 -25.7519 1.02073 10.0116 43.3659 2.55284 -9.47015 9.47747 0.181007 -44.3083 3.52025 -3.40385 -28.2743 -7.18459 3.3281 -1.6345 29.3951 -19.5062 5.82328 9.61819 -0.917488 0.916657 -12.4452 -4.09456 6.54902 -23.8273 -1.24981 -1.03561 32.2519 -14.889 -0.212383 -5.79317 -0.159585 0.0462048 0.000530889 0.662642 
93.8646 94.7895 4.51484 -8.11288 4.3132 -91.2824 5.45271 10.6233 3.81621 1.22345 57.4562 9.64207 -14.7828 -3.23526 0.581982 -1.33828e-009 8.75237e-006 -1.46798e-008 8.56002 13.4554 -2.36833 0.962166 -1.7063 -0.857307 38.2028 1.77835 0.0130659 37.342 -25.6578 3.09607 10.2064 43.1313 2.28398 -9.85256 9.44232 0.39838 -44.4464 3.51894 -3.38079 -28.4663 -10.9783 4.76738 -3.44963 34.0099 -16.1785 5.82328 9.61819 -0.917488 0.906916 -12.6765 -4.11274 7.9189 -22.8224 -0.771018 -1.10548 35.892 -16.2098 -1.02855 -9.80337 -0.202678 0.0462048 0.000530889 0.662642 
90.6897 94.828 4.08887 -8.64981 4.86364 -89.7046 6.30204 4.46967 0.447412 1.83152 67.6142 10.7727 -13.0259 1.43735 1.02035 -1.33828e-009 8.75237e-006 -1.46798e-008 10.1327 13.7712 -2.88789 1.07237 -1.10975 -0.871891 38.2535 1.77385 -0.00120917 37.876 -24.748 4.97307 9.66176 40.8005 4.08536 -10.3783 9.39696 0.633138 -44.8485 3.54628 -3.37459 -28.2678 -12.6942 5.27656 -5.02303 37.446 -13.6621 5.82328 9.61819 -0.917488 0.884127 -13.4802 -4.75773 8.8284 -21.0445 -0.70849 -1.19939 37.8768 -17.9688 -0.779113 -13.0083 -0.243218 0.0462048 0.000530889 0.662642 
87.4522 95.3665 3.78596 -9.21798 4.79624 -88.9065 5.80532 -0.994542 -1.5559 2.84232 74.6503 11.8587 -11.3013 -0.152496 0.735054 -1.33828e-009 8.75237e-006 -1.46798e-008 11.2563 13.7948 -2.83317 0.328417 -0.570067 -0.431145 37.9108 1.7675 0.0128394 38.4435 -21.941 6.44364 8.69858 36.8685 7.10859 -10.7787 9.36465 0.767914 -45.2308 3.5769 -3.37757 -28.2612 -13.1903 5.62805 -5.78803 39.5701 -12.409 5.82328 9.61819 -0.917488 0.854561 -13.9408 -5.69972 8.91187 -18.229 -0.897029 -1.23543 37.9624 -18.6234 -0.103818 -14.9628 -0.22749 0.0462048 0.000530889 0.662642 
84.2433 96.1433 3.55475 -9.59802 4.30372 -88.9865 4.58577 -6.01055 -2.49729 4.04388 78.5346 12.2825 -9.29443 -4.36138 0.280318 -1.33828e-009 8.75237e-006 -1.46798e-008 11.8979 13.8268 -2.33591 -0.860599 -0.569214 0.364296 37.3449 1.75944 0.041833 38.754 -16.8784 7.6143 7.56588 32.1568 10.5263 -10.9225 9.35254 0.818895 -45.2268 3.56878 -3.36253 -28.7456 -13.2727 6.54182 -5.53938 39.9143 -12.6012 5.82328 9.61819 -0.917488 0.751148 -13.6504 -6.53812 8.31503 -14.9167 -1.63477 -1.19642 36.8074 -17.9148 0.213211 -16.7391 -0.215913 0.0462048 0.000530889 0.662642 
81.1483 96.926 3.34108 -9.82216 3.84303 -89.3954 3.32999 -10.8054 -3.19388 4.64772 79.6935 12.4168 -7.57611 -7.4492 0.041107 -1.33828e-009 8.75237e-006 -1.46798e-008 12.44 13.9438 -1.77028 -1.95179 -0.860452 1.19417 36.8934 1.74942 0.0570516 38.5065 -10.4416 8.71896 6.3762 26.9803 14.0411 -10.9742 9.34086 0.921906 -45.0288 3.54184 -3.33946 -29.4223 -12.5665 7.81452 -4.78114 38.1305 -13.7854 5.82328 9.61819 -0.917488 0.473625 -13.0712 -7.13634 7.60121 -11.5449 -2.84481 -1.094 35.0603 -16.5552 0.149174 -18.2802 -0.228991 0.0462048 0.000530889 0.662642 
78.1115 97.7092 3.11909 -10.0774 3.48449 -89.9032 2.33891 -14.9956 -3.61225 4.13884 78.3689 12.9418 -6.81996 -9.41922 -0.0661157 -1.33828e-009 8.75237e-006 -1.46798e-008 12.8125 14.0505 -1.23766 -2.83426 -1.0404 1.87832 36.5869 1.73952 0.0603027 37.9003 -4.66413 10.0035 5.30163 22.2997 17.2879 -10.9408 9.33112 1.05685 -45.008 3.53475 -3.33116 -29.9049 -11.1202 8.87689 -4.08115 35.344 -15.1914 5.82328 9.61819 -0.917488 0.0891194 -12.689 -7.44931 7.00385 -8.06151 -3.75399 -0.810175 32.9372 -15.3783 0.157868 -19.0636 -0.23226 0.0462048 0.000530889 0.662642 
75.1306 98.3979 2.91087 -10.3833 3.07106 -90.474 1.65792 -18.3122 -3.51546 3.12421 74.7587 13.4587 -7.39822 -11.6559 -0.2091 -1.33828e-009 8.75237e-006 -1.46798e-008 12.8182 14.1366 -0.757742 -3.57394 -1.09621 2.36809 36.2851 1.73306 0.071219 37.4665 -1.36978 11.4925 4.44058 19.5645 19.8764 -10.5566 9.35809 0.988316 -45.1102 3.53906 -3.32996 -30.1696 -9.77561 9.55653 -3.54473 33.2251 -16.318 5.82328 9.61819 -0.917488 -0.222165 -12.4256 -7.4457 6.38436 -4.55552 -4.04282 -0.362406 30.7168 -14.6495 0.425206 -19.653 -0.206594 0.0462048 0.000530889 0.662642 
72.2081 98.8858 2.72343 -10.5644 2.59718 -91.0771 1.23585 -20.9168 -3.02669 2.23659 69.1502 13.6228 -8.69797 -13.4213 -0.378277 -1.33828e-009 8.75237e-006 -1.46798e-008 12.5231 14.1907 -0.335871 -4.28256 -1.27307 2.68072 36.0086 1.73093 0.0902695 37.4502 -0.483063 12.9559 3.84612 18.7387 21.8457 -9.89568 9.42022 0.6579 -45.1517 3.54259 -3.32196 -30.2758 -9.0124 9.94643 -3.22175 32.3006 -16.9278 5.82328 9.61819 -0.917488 -0.407362 -12.0707 -7.23285 5.68884 -1.22929 -4.38358 -0.019712 28.4987 -13.7628 0.660957 -20.6932 -0.182431 0.0462048 0.000530889 0.662642 
69.3508 99.2308 2.52015 -10.4976 2.17662 -91.6975 1.07286 -22.9475 -2.25738 1.64648 61.7456 13.81 -9.77336 -13.4588 -0.436705 -1.33828e-009 8.75237e-006 -1.46798e-008 12.061 14.1877 0.0649293 -5.02607 -1.59088 2.88069 35.92 1.73298 0.102833 37.6745 -1.0195 14.2268 3.57678 18.9546 23.3804 -9.51538 9.45705 0.430384 -45.2169 3.5452 -3.31868 -30.0671 -8.8584 10.0202 -3.28111 32.2974 -16.8736 5.82328 9.61819 -0.917488 -0.522176 -11.7703 -6.99554 5.09516 1.87379 -4.62813 0.250574 26.0492 -12.8889 0.703395 -21.7043 -0.177884 0.0462048 0.000530889 0.662642 
